<?xml version="1.0" encoding="UTF-8"?>
<!DOCTYPE svg PUBLIC "-//W3C//DTD SVG 1.1//EN" "http://www.w3.org/Graphics/SVG/1.1/DTD/svg11.dtd">
<!-- Creator: CorelDRAW X7 -->
<svg xmlns="http://www.w3.org/2000/svg" xml:space="preserve" width="1000mm" height="1000mm" version="1.1" style="shape-rendering:geometricPrecision; text-rendering:geometricPrecision; image-rendering:optimizeQuality; fill-rule:evenodd; clip-rule:evenodd"
viewBox="0 0 100000 100000"
 xmlns:xlink="http://www.w3.org/1999/xlink"
 xmlns:dc="http://purl.org/dc/elements/1.1/"
 xmlns:cc="http://creativecommons.org/ns#"
 xmlns:rdf="http://www.w3.org/1999/02/22-rdf-syntax-ns#"
 xmlns:svg="http://www.w3.org/2000/svg"
 xmlns:sodipodi="http://sodipodi.sourceforge.net/DTD/sodipodi-0.dtd"
 xmlns:inkscape="http://www.inkscape.org/namespaces/inkscape"
 inkscape:version="0.48.2 r9819"
 sodipodi:docname="GeoSym_Geysir.svg">
 <defs>
  <style type="text/css">
   <![CDATA[
    .str1 {stroke:black;stroke-width:1270}
    .str0 {stroke:black;stroke-width:2116.66}
    .fil0 {fill:none}
    .fil1 {fill:black}
   ]]>
  </style>
 </defs>
 <g id="Capa_x0020_1">
  <metadata id="CorelCorpID_0Corel-Layer"/>
  <sodipodi:namedview id="base" pagecolor="#ffffff" bordercolor="#666666" borderopacity="1.0" inkscape:pageopacity="0.0" inkscape:pageshadow="2" inkscape:zoom="0.88013997" inkscape:cx="212.5" inkscape:cy="277.07486" inkscape:document-units="px" inkscape:current-layer="layer1" showgrid="false" inkscape:window-width="1366" inkscape:window-height="716" inkscape:window-x="-8" inkscape:window-y="-8" inkscape:window-maximized="1"/>
  <sodipodi:namedview id="base" pagecolor="#ffffff" bordercolor="#666666" borderopacity="1.0" inkscape:pageopacity="0.0" inkscape:pageshadow="2" inkscape:zoom="22.4" inkscape:cx="2.2669275" inkscape:cy="11.055256" inkscape:document-units="px" inkscape:current-layer="layer1" showgrid="false" inkscape:snap-bbox="true" inkscape:object-paths="true" inkscape:snap-global="true" inkscape:window-width="1310" inkscape:window-height="956" inkscape:window-x="101" inkscape:window-y="25" inkscape:window-maximized="0" fit-margin-top="0" fit-margin-left="0" fit-margin-right="0" fit-margin-bottom="0"/>
  <path class="fil0 str0" d="M43543 50081c-3387,188 -5833,471 -7903,1411 -2069,941 -3763,2540 -5080,4045 -1317,1506 -2257,2917 -1740,4610 517,1693 2493,3669 5597,4939 3105,1270 7338,1834 11760,1929 4421,94 9031,-283 13076,-1082 4045,-800 7526,-2023 10113,-3293 2587,-1270 4280,-2587 4845,-4092 564,-1505 0,-3199 -1882,-4704 -1881,-1505 -5080,-2822 -8090,-3481 -3011,-658 -5833,-658 -9408,-611 -3574,47 -7902,141 -11288,329z"/>
  <g id="_797550432">
   <path class="fil1" d="M29648 37057c1281,219 5428,775 5540,2482 142,2173 -4762,3625 -426,7659 584,543 949,600 1669,891 2661,1078 5323,2684 2449,5592 -718,727 -1494,1210 -2329,1772 -1517,1022 -2019,3010 -1828,4745 0,0 101,789 101,789l-181 -362c-369,-944 -297,-2348 -4,-3307 537,-1764 1283,-2022 2583,-3045 2896,-2277 2941,-3740 -510,-5122 -977,-391 -1774,-536 -2584,-1252 -1806,-1595 -2956,-3505 -1616,-5862 286,-504 1468,-1947 1523,-2318 104,-702 -4061,-1328 -4586,-1408 -347,-54 -583,-380 -528,-726 55,-347 380,-583 727,-528z"/>
  </g>
  <path class="fil0" d="M29548 37684c12154,1925 -2390,3731 5239,10163 994,838 9520,2181 1612,7374 -1682,1104 -2260,3785 -1575,5766"/>
  <g id="_797559872">
   <path class="fil1" d="M47233 59794c-32,-934 -1314,-1943 -1903,-2722 -2221,-2940 95,-5729 2138,-7901 1980,-2105 1010,-3320 -956,-4893 -2729,-2184 -6904,-4470 -3762,-8418 850,-1069 1583,-1496 2485,-2375 2462,-2398 485,-3464 -1812,-4613 -975,-487 -2516,-1175 -3257,-1955 -546,-573 -461,-545 -1271,-863 -1682,-661 -3665,-1236 -2819,-3601l130 -319c41,-182 15,-92 84,-278l0 0c36,364 12,247 -78,637 -728,3160 2743,2482 4126,3895 1158,1181 3000,1717 4450,2493 2963,1585 3012,3349 516,5590 -1586,1425 -3831,3349 -2226,5609 2156,3038 9603,5029 5190,9859 -1256,1374 -3390,3721 -2393,5732 784,1582 2528,2140 2627,4163 -11,350 -304,626 -654,615 -351,-11 -626,-304 -615,-655z"/>
  </g>
  <path class="fil0" d="M47868 59814c84,-2690 -6466,-3522 0,-10259 6005,-6257 -12457,-7335 -3078,-15154 5731,-4778 -2838,-5544 -4640,-7868 -915,-1180 -5225,-808 -3898,-4384l38 -293"/>
  <g id="_797556064">
   <path class="fil1" d="M60186 59783c-534,-842 -1565,-1198 -2157,-1990l-144 -245c-298,-158 -420,-271 -755,-680 -1405,-1713 -990,-3616 461,-5093 775,-790 1404,-1270 984,-2565 -931,-2869 -6764,-6413 -2941,-9516 659,-536 1273,-812 2030,-1168 1420,-667 1283,-1238 469,-2467 -1406,-2123 -3568,-4314 -1764,-7014 805,-1204 2583,-2436 3690,-3414 63,-56 140,-119 192,-192 -143,-200 -650,-361 -1030,-1346 -149,-385 -167,-510 -215,-918 268,574 477,1182 935,1641 212,212 717,419 617,711 -84,246 -2256,2165 -2605,2500 -2534,2419 -1901,4046 73,6642 1303,1715 2614,3308 -24,4619 -3279,1629 -3505,2790 -1138,5675 1769,2154 4471,4687 1791,7351 -1395,1387 -1806,2765 -150,4209l-85 -2c316,88 325,120 486,388 199,330 675,643 978,872 753,568 942,668 1459,1478 145,320 3,696 -317,841 -319,144 -696,2 -840,-317z"/>
  </g>
  <path class="fil0" d="M60764 59521c-398,-882 -2139,-1636 -2428,-2395 -221,-31 -3195,-2342 -63,-5226 4633,-4267 -9276,-9068 -440,-12993 4782,-2124 -5616,-5889 -255,-10858 4670,-4328 2390,-1134 1428,-4874"/>
  <g id="_797545152">
   <path class="fil1" d="M65992 56736c45,-2606 247,-5617 2337,-7451 922,-810 1073,-882 661,-2213 -420,-1352 -1160,-2594 -493,-4092 1108,-2485 5255,-2322 7418,-3099 844,-303 1607,-995 1503,-1964 -108,-1020 -760,-1917 -772,-3234 -11,-1078 355,-1853 952,-2724 58,-85 110,-190 167,-284l0 0c10,361 -134,490 -293,851 -1619,3667 2125,5112 -283,7359 -1492,1392 -4985,1171 -6939,2462 -2000,1322 -601,3176 -154,4795 440,1594 10,2018 -1027,2971 -1759,1616 -1813,4400 -1807,6623 0,351 -285,635 -635,635 -351,0 -635,-284 -635,-635z"/>
  </g>
  <path class="fil0" d="M66627 56736c0,-9725 4683,-5476 2529,-10698 -2347,-5691 5641,-4704 7570,-6193 2830,-2183 -1516,-3796 855,-7730 125,-209 124,-206 184,-440"/>
  <path class="fil0 str1" d="M40639 53620c-1458,71 -2916,141 -4104,612 -1188,470 -2105,1340 -2728,2281 -623,941 -953,1952 -847,2763 106,812 647,1423 1435,1870 788,447 1823,729 2846,1011 1023,283 2034,565 2751,729 718,165 1141,212 1564,259"/>
  <path class="fil0 str1" d="M42473 54467c-1152,470 -2304,941 -3175,1593 -871,653 -1460,1488 -1543,2170 -82,682 343,1211 920,1581 576,371 1305,582 2070,841 764,259 1564,565 2328,741 765,176 1494,223 2223,270"/>
  <path class="fil0 str1" d="M51222 54749c941,-235 1882,-470 3081,-576 1200,-106 2658,-82 3940,0 1281,82 2387,223 3186,670 800,447 1294,1200 1564,1976 271,776 318,1575 -235,2234 -553,658 -1705,1176 -3093,1435 -1387,258 -3010,258 -4198,294 -1187,35 -1940,105 -2692,176"/>
  <path class="fil0 str1" d="M57248 51927c2093,376 4186,752 5797,1387 1611,635 2740,1529 3516,2411 776,882 1200,1752 1011,2528 -188,776 -987,1458 -2163,2117 -1176,658 -2728,1293 -4128,1705 -1399,412 -2646,600 -3892,788"/>
 </g>
</svg>
