<?xml version="1.0" encoding="UTF-8" standalone="no"?>
<!-- Generator: Adobe Illustrator 16.0.0, SVG Export Plug-In . SVG Version: 6.00 Build 0)  -->

<svg
   xmlns:dc="http://purl.org/dc/elements/1.1/"
   xmlns:cc="http://creativecommons.org/ns#"
   xmlns:rdf="http://www.w3.org/1999/02/22-rdf-syntax-ns#"
   xmlns:svg="http://www.w3.org/2000/svg"
   xmlns="http://www.w3.org/2000/svg"
   xmlns:sodipodi="http://sodipodi.sourceforge.net/DTD/sodipodi-0.dtd"
   xmlns:inkscape="http://www.inkscape.org/namespaces/inkscape"
   version="1.1"
   id="svg2"
   inkscape:output_extension="org.inkscape.output.svg.inkscape"
   sodipodi:docname="poi_mine_backup.svg"
   inkscape:version="0.92.1 r15371"
   sodipodi:version="0.32"
   x="0px"
   y="0px"
   width="618.66669"
   height="618.66669"
   viewBox="0 0 580 580"
   enable-background="new 0 0 580 580"
   xml:space="preserve"><metadata
     id="metadata17"><rdf:RDF><cc:Work
         rdf:about=""><dc:format>image/svg+xml</dc:format><dc:type
           rdf:resource="http://purl.org/dc/dcmitype/StillImage" /></cc:Work></rdf:RDF></metadata><sodipodi:namedview
     showgrid="false"
     inkscape:cy="-34.972495"
     inkscape:cx="398.13152"
     inkscape:zoom="0.35355339"
     pagecolor="#ffffff"
     bordercolor="#666666"
     guidetolerance="10.0"
     objecttolerance="10.0"
     gridtolerance="10.0"
     borderopacity="1.0"
     id="base"
     inkscape:window-maximized="0"
     inkscape:current-layer="svg2"
     inkscape:window-y="20"
     inkscape:window-x="0"
     inkscape:pageopacity="0.0"
     inkscape:pageshadow="2"
     inkscape:window-width="1400"
     inkscape:window-height="1003"
     inkscape:guide-bbox="true"
     showguides="true" /><defs
     id="defs8"><inkscape:perspective
       inkscape:vp_z="579.99998 : 289.99999 : 1"
       inkscape:vp_y="0 : 999.99997 : 0"
       inkscape:vp_x="0 : 289.99999 : 1"
       sodipodi:type="inkscape:persp3d"
       id="perspective12"
       inkscape:persp3d-origin="289.99999 : 193.33332 : 1" /><inkscape:perspective
       inkscape:vp_z="58.232061 : 29.116031 : 1"
       inkscape:vp_y="0 : 999.99997 : 0"
       inkscape:vp_x="0 : 29.116031 : 1"
       sodipodi:type="inkscape:persp3d"
       id="perspective6807"
       inkscape:persp3d-origin="29.116031 : 19.410687 : 1" /><inkscape:perspective
       inkscape:vp_z="579.99998 : 289.99999 : 1"
       inkscape:vp_y="0 : 999.99997 : 0"
       inkscape:vp_x="0 : 289.99999 : 1"
       sodipodi:type="inkscape:persp3d"
       id="perspective6954"
       inkscape:persp3d-origin="289.99999 : 193.33332 : 1" /><inkscape:perspective
       inkscape:vp_z="479.99999 : 239.99999 : 1"
       inkscape:vp_y="0 : 999.99997 : 0"
       inkscape:vp_x="0 : 239.99999 : 1"
       sodipodi:type="inkscape:persp3d"
       id="perspective2541"
       inkscape:persp3d-origin="239.99999 : 160 : 1" /><inkscape:perspective
       inkscape:vp_z="429.99999 : 214.99999 : 1"
       inkscape:vp_y="0 : 999.99997 : 0"
       inkscape:vp_x="0 : 214.99999 : 1"
       sodipodi:type="inkscape:persp3d"
       id="perspective2750"
       inkscape:persp3d-origin="214.99999 : 143.33332 : 1" /></defs><path
     fill="param(fill)"
     stroke="param(outline)"
     stroke-width="param(outline-width)"
     d="m 267.443,358.478 c -4.205,-4.073 -8.409,-8.147 -12.62,-12.215 -1.929,-1.862 -4.524,-2.888 -7.207,-2.804 -2.682,0.069 -5.223,1.213 -7.052,3.174 l -4.821,5.162 c -2.637,2.822 -5.274,5.644 -7.892,8.456 l -123.25,131.844 c -1.826,1.953 -2.793,4.556 -2.687,7.228 0.106,2.671 1.278,5.188 3.254,6.99 L 128.95,528 c 1.847,1.685 4.251,2.611 6.738,2.611 0.174,0 0.348,-0.005 0.522,-0.014 2.67,-0.14 5.172,-1.342 6.95,-3.339 L 263.114,392.43 c 2.189,-2.45 4.372,-4.907 6.554,-7.364 1.764,-1.986 3.528,-3.973 5.296,-5.955 3.569,-4.004 3.345,-10.11 -0.509,-13.841 z"
     id="path10"
     inkscape:connector-curvature="0"
     style="stroke:#000000;stroke-opacity:1;stroke-width:1.78124994;stroke-miterlimit:4;stroke-dasharray:none;fill:#ffffff;fill-opacity:1" /><path
     fill="param(fill)"
     stroke="param(outline)"
     stroke-width="param(outline-width)"
     d="m 549.047,272.747 c -2.955,-4.617 -13.226,-27.54 -20.782,-44.408 -20.068,-44.797 -24.617,-53.919 -28.609,-57.404 -7.051,-6.18 -15.026,-13.266 -23.405,-20.794 l 10.259,-9.991 c 2.021,-1.967 3.116,-4.696 3.018,-7.514 -0.099,-2.818 -1.383,-5.464 -3.536,-7.285 l -13.781,-11.656 c -3.944,-3.337 -9.78,-3.119 -13.465,0.5 l -10.593,10.402 C 429.244,107.13 405.962,85.024 390.345,68.134 c -3.68,-3.978 -9.859,-4.304 -13.934,-0.731 l -51.594,45.219 c -2.089,1.831 -3.322,4.447 -3.404,7.222 -0.083,2.776 0.992,5.461 2.967,7.413 l 62.876,62.115 c -26.175,28.349 -51.9,55.905 -71.808,77.19 -1.813,1.938 -2.781,4.519 -2.69,7.172 0.091,2.653 1.232,5.161 3.174,6.972 5.981,5.579 11.953,11.157 17.93,16.743 1.856,1.734 4.299,2.694 6.828,2.694 0.153,0 0.308,-0.004 0.462,-0.011 2.692,-0.125 5.221,-1.331 7.012,-3.346 28.816,-32.416 51.493,-57.775 72.791,-81.399 8.38,5.463 24.955,20.992 27.983,25.28 0.924,1.383 2.179,2.515 3.651,3.291 l 84.594,44.594 c 1.626,0.857 3.384,1.226 5.11,1.145 5.325,-0.224 9.572,-4.612 9.572,-9.991 -10e-4,-2.706 -1.074,-5.16 -2.818,-6.959 z"
     id="path12"
     inkscape:connector-curvature="0"
     style="stroke:#000000;stroke-opacity:1;fill:#ffffff;fill-opacity:1;stroke-width:1.78124994;stroke-miterlimit:4;stroke-dasharray:none" /><path
     fill="param(fill)"
     stroke="param(outline)"
     stroke-width="param(outline-width)"
     d="m 368.231,360.828 c -22.144,-21.29 -44.724,-42.871 -66.56,-63.741 -35.823,-34.238 -72.864,-69.641 -108.975,-104.712 -1.308,-1.308 -2.732,-2.445 -4.111,-3.546 -0.256,-0.205 -0.55,-0.439 -0.857,-0.688 l 75.559,-54.561 c 2.183,-1.577 3.638,-3.967 4.036,-6.631 0.397,-2.664 -0.296,-5.375 -1.924,-7.521 L 225.884,67.339 c -3.25,-4.283 -9.306,-5.231 -13.708,-2.144 -5.124,3.593 -10.26,7.156 -15.392,10.717 -29.903,20.749 -60.824,42.203 -87.775,68.608 -0.042,0.041 -0.083,0.082 -0.124,0.123 -19.511,19.792 -34.759,43.14 -49.504,65.719 -7.352,11.257 -14.954,22.897 -22.896,33.771 -1.565,2.143 -2.214,4.819 -1.805,7.441 0.41,2.622 1.844,4.973 3.987,6.536 l 52.823,38.529 c 2.176,1.586 4.897,2.227 7.556,1.781 2.655,-0.447 5.018,-1.947 6.553,-4.16 l 53.13,-76.572 c 0.255,0.303 0.495,0.591 0.704,0.844 1.126,1.357 2.29,2.759 3.622,4.042 35.734,35.435 71.819,71.794 106.715,106.957 21.287,21.449 43.299,43.629 64.998,65.364 L 462.02,522.883 c 1.878,1.888 4.43,2.949 7.092,2.949 0.011,0 0.021,0 0.032,0 2.674,-0.009 5.232,-1.088 7.105,-2.996 l 22.545,-22.974 c 1.872,-1.908 2.902,-4.486 2.861,-7.159 -0.042,-2.674 -1.152,-5.219 -3.083,-7.067 z"
     id="path14"
     inkscape:connector-curvature="0"
     style="fill:#ffffff;fill-opacity:1;stroke:#000000;stroke-opacity:1;stroke-width:1.78124994;stroke-miterlimit:4;stroke-dasharray:none" /></svg>